<svg width="114" height="113" viewBox="0 0 114 113" fill="none" xmlns="http://www.w3.org/2000/svg">
<path d="M113.948 56.4483C113.948 87.6238 88.452 112.897 57.0006 112.897C25.5491 112.897 0.0527344 87.6238 0.0527344 56.4483C0.0527344 25.2728 25.5491 0 57.0006 0C88.452 0 113.948 25.2728 113.948 56.4483Z" fill="#FFF2F2"/>
<rect x="34" y="19.1035" width="46" height="74" rx="5" fill="white" stroke="#EB5757" stroke-width="6"/>
<path d="M54 53C65.2 53 65.7194 53 68.0527 53" stroke="#EB5757" stroke-width="8" stroke-linecap="round"/>
<path d="M45 66C56.2 66 65.7194 66 68.0527 66" stroke="#EB5757" stroke-width="8" stroke-linecap="round"/>
<path d="M59 40C66.4232 40 66.4535 40 68 40" stroke="#EB5757" stroke-width="8" stroke-linecap="round"/>
<rect x="37" y="78.1035" width="43" height="16" fill="#EB5757"/>
<circle cx="57" cy="87.1035" r="5" fill="white"/>
</svg>
