<svg width="114" height="113" viewBox="0 0 114 113" fill="none" xmlns="http://www.w3.org/2000/svg">
<path d="M113.948 56.4483C113.948 87.6238 88.452 112.897 57.0006 112.897C25.5491 112.897 0.0527344 87.6238 0.0527344 56.4483C0.0527344 25.2728 25.5491 0 57.0006 0C88.452 0 113.948 25.2728 113.948 56.4483Z" fill="#E9F7ED"/>
<path d="M57.3298 87.8973C74.6705 87.8973 88.728 73.9632 88.728 56.7745C88.728 39.5859 74.6705 25.6518 57.3298 25.6518C39.9891 25.6518 25.9316 39.5859 25.9316 56.7745C25.9316 73.9632 39.9891 87.8973 57.3298 87.8973Z" stroke="#28C75B" stroke-width="6.02"/>
<path d="M83.9922 81.9648H30.6731C28.0924 81.9636 25.7082 80.5981 24.4183 78.3824C23.1285 76.1667 23.1288 73.4372 24.4192 71.2218L51.0807 25.4648C52.3728 23.2541 54.7552 21.8931 57.3327 21.8931C59.9102 21.8931 62.2925 23.2541 63.5846 25.4648L90.2421 71.2218C91.5322 73.4366 91.5329 76.1652 90.244 78.3806C88.9551 80.5961 86.5723 81.9622 83.9922 81.9648Z" fill="white"/>
<path d="M57.2132 62.2654C55.8123 62.2654 54.6241 60.9205 54.5157 59.2056L53.3115 40.4174C53.2169 39.1174 53.5832 37.8256 54.3471 36.7648C54.9856 35.7975 56.0731 35.2145 57.2393 35.2145C58.4054 35.2145 59.493 35.7975 60.1314 36.7648C60.8971 37.829 61.2609 39.1261 61.159 40.4293L59.9026 59.2096C59.7983 60.9245 58.6141 62.2654 57.2132 62.2654Z" fill="#009530"/>
<path d="M57.2446 72.3638C55.0276 72.3638 53.2305 70.5824 53.2305 68.3849C53.2305 66.1874 55.0276 64.406 57.2446 64.406C59.4615 64.406 61.2586 66.1874 61.2586 68.3849C61.2586 70.5824 59.4615 72.3638 57.2446 72.3638Z" fill="#009530"/>
<path d="M83.9922 81.9648H30.6731C28.0924 81.9636 25.7082 80.5981 24.4183 78.3824C23.1285 76.1667 23.1288 73.4372 24.4192 71.2218L51.0807 25.4648C52.3728 23.2541 54.7552 21.8931 57.3327 21.8931C59.9102 21.8931 62.2925 23.2541 63.5846 25.4648L90.2421 71.2218C91.5322 73.4366 91.5329 76.1652 90.244 78.3806C88.9551 80.5961 86.5723 81.9622 83.9922 81.9648ZM53.1359 26.6585L26.4744 72.4155C25.6103 73.9023 25.6114 75.7329 26.4771 77.2187C27.3429 78.7045 28.9421 79.6202 30.6731 79.6212H83.9922C85.7225 79.6188 87.3204 78.7026 88.1852 77.217C89.05 75.7314 89.0507 73.9017 88.1869 72.4155L61.5294 26.6585C60.6641 25.1718 59.0642 24.2558 57.3327 24.2558C55.6011 24.2558 54.0012 25.1718 53.1359 26.6585Z" fill="#009530"/>
</svg>
