<svg width="200" height="108" viewBox="0 0 200 108" fill="none" xmlns="http://www.w3.org/2000/svg">
<path d="M200 108C132.941 108 155.228 108 100 108C44.7715 108 29.4118 108 0 108C0 48.3532 44.7715 0 100 0C155.228 0 200 48.3532 200 108Z" fill="#E9F7ED"/>
<mask id="mask0_17314_64898" style="mask-type:alpha" maskUnits="userSpaceOnUse" x="0" y="0" width="200" height="108">
<path d="M200 108C132.941 108 155.228 108 100 108C44.7715 108 29.4118 108 0 108C0 48.3532 44.7715 0 100 0C155.228 0 200 48.3532 200 108Z" fill="#D9D9D9"/>
</mask>
<g mask="url(#mask0_17314_64898)">
<path d="M108.2 92.4766C108.349 92.621 108.316 92.8017 108.275 92.9673C108.109 93.6151 107.931 94.2584 107.757 94.904C107.751 94.9283 107.741 94.9519 107.731 94.9868C107.33 94.5023 106.828 94.1939 106.211 94.0511C106.326 93.9433 106.433 93.8392 106.544 93.7397C106.632 93.6607 106.724 93.5886 106.811 93.5096C107.11 93.2377 107.405 92.9597 107.709 92.6939C107.808 92.6065 107.933 92.548 108.046 92.4766H108.2Z" fill="#FAC605"/>
<path d="M115.734 96.2906C115.703 96.2951 115.672 96.2997 115.641 96.3058C115.387 96.3597 115.267 96.6893 115.391 96.9498C115.491 97.1587 115.734 97.2453 115.944 97.1063C116.056 97.0326 116.095 96.924 116.119 96.8078C116.164 96.5815 116 96.2868 115.734 96.2906ZM116.568 96.8739C116.517 96.9931 116.48 97.1215 116.413 97.2293C116.273 97.4511 116.053 97.5499 115.797 97.5666C115.573 97.581 115.37 97.5271 115.187 97.3805C115.038 97.2597 114.956 97.1025 114.915 96.9278C114.859 96.6863 114.897 96.4501 115.046 96.2427C115.18 96.0536 115.361 95.9427 115.595 95.9078C115.851 95.8683 116.076 95.9298 116.278 96.0848C116.426 96.1979 116.508 96.3559 116.549 96.5367C116.552 96.5534 116.561 96.5686 116.568 96.5845V96.8739Z" fill="white"/>
<path d="M104.731 92.4776C104.916 92.5854 105.01 92.77 105.117 92.9439C105.312 93.2629 105.506 93.5819 105.7 93.9017C105.717 93.9305 105.73 93.9624 105.747 93.9974C105.219 94.0034 104.738 94.1386 104.277 94.4272C104.294 94.2351 104.309 94.0627 104.324 93.8895C104.331 93.7953 104.339 93.7004 104.345 93.6047C104.359 93.3898 104.365 93.1733 104.386 92.9584C104.4 92.8224 104.406 92.6811 104.497 92.5657C104.522 92.5346 104.55 92.5072 104.577 92.4776H104.731Z" fill="#FAC605"/>
<path d="M101.918 97.2974C102.033 97.1052 102.235 97.0187 102.408 96.8956C102.615 96.7483 102.826 96.6047 103.036 96.4612C103.056 96.4475 103.079 96.4399 103.116 96.4232C103.089 96.9192 103.196 97.3741 103.424 97.8237C103.318 97.8063 103.227 97.7956 103.138 97.7774C102.804 97.709 102.469 97.643 102.136 97.5632C102.058 97.5442 101.99 97.4774 101.918 97.4326V97.2974Z" fill="#FAC605"/>
<path d="M106.294 99.8809C106.11 99.6591 105.927 99.4373 105.738 99.2102C106.07 99.1403 106.383 99.075 106.698 99.0089C106.688 99.0712 106.673 99.157 106.66 99.2429C106.639 99.3735 106.63 99.5079 106.595 99.634C106.571 99.7221 106.511 99.7988 106.468 99.8809H106.294Z" fill="#FAC605"/>
<path d="M104.448 96.1017C104.738 95.769 105.205 95.8753 105.382 96.132C105.47 96.072 105.551 95.9961 105.647 95.9566C105.935 95.8373 106.305 95.8647 106.484 96.173C106.537 96.2649 106.572 96.3774 106.579 96.4829C106.597 96.7609 106.597 97.0396 106.601 97.3176C106.604 97.4794 106.573 97.5075 106.416 97.5098C106.12 97.5143 106.137 97.4931 106.14 97.2379C106.142 97.045 106.143 96.852 106.139 96.6599C106.136 96.5528 106.115 96.4465 106.025 96.372C105.926 96.2908 105.811 96.2915 105.702 96.3341C105.573 96.3842 105.526 96.5004 105.524 96.6295C105.519 96.871 105.523 97.1118 105.522 97.3526C105.521 97.4695 105.484 97.5083 105.369 97.509C105.061 97.5128 105.054 97.5257 105.06 97.2007C105.063 97.0115 105.068 96.8209 105.059 96.6325C105.044 96.3622 104.882 96.2589 104.634 96.3348C104.522 96.369 104.445 96.4829 104.443 96.6432C104.44 96.8771 104.443 97.1126 104.442 97.3465C104.442 97.4741 104.406 97.509 104.276 97.509C104.238 97.5098 104.199 97.5083 104.161 97.5098C104.012 97.5128 103.987 97.49 103.983 97.3313C103.974 96.9364 103.974 96.5406 103.983 96.1457C103.987 95.9862 104.024 95.933 104.179 95.9475C104.213 95.9513 104.248 95.9482 104.284 95.9482C104.409 95.9482 104.435 95.9703 104.448 96.1017Z" fill="white"/>
<path d="M108.536 97.1879C108.58 97.1659 108.67 97.1408 108.729 97.0846C108.884 96.9381 108.905 96.7573 108.844 96.5553C108.791 96.3768 108.662 96.2978 108.498 96.2826C108.372 96.2704 108.26 96.3426 108.193 96.4527C108.094 96.6153 108.082 96.7907 108.164 96.9654C108.227 97.1029 108.34 97.1735 108.536 97.1879ZM108.114 97.3588C108.067 97.5092 108.067 97.5069 107.914 97.51C107.666 97.516 107.661 97.5077 107.662 97.2548C107.665 96.676 107.664 96.098 107.664 95.52C107.664 95.4092 107.699 95.3719 107.81 95.3704C108.125 95.3666 108.111 95.3697 108.107 95.6606C108.104 95.8049 108.107 95.9499 108.108 96.0942C108.108 96.0988 108.113 96.1034 108.117 96.1109C108.287 95.9188 108.501 95.8595 108.744 95.9112C108.991 95.9636 109.159 96.1102 109.25 96.3472C109.373 96.6722 109.358 96.9867 109.165 97.2791C108.931 97.633 108.378 97.6725 108.114 97.3588Z" fill="white"/>
<path d="M110.719 96.7343C110.703 96.6614 110.695 96.5847 110.666 96.5171C110.575 96.3075 110.357 96.2224 110.147 96.3394C109.973 96.4351 109.884 96.7662 110.024 96.9979C110.133 97.1771 110.355 97.2387 110.528 97.1202C110.662 97.0283 110.712 96.8954 110.719 96.7343ZM110.717 97.3571C110.491 97.6275 110.107 97.6101 109.883 97.4847C109.664 97.3617 109.554 97.1574 109.515 96.9212C109.477 96.6949 109.501 96.4678 109.615 96.2619C109.726 96.0637 109.889 95.9414 110.122 95.9088C110.356 95.8761 110.516 95.9209 110.697 96.0941C110.748 95.949 110.748 95.9521 110.903 95.949C111.17 95.9437 111.172 95.9475 111.169 96.2095C111.166 96.5885 111.168 96.9675 111.168 97.3465C111.168 97.4885 111.146 97.5098 111 97.5098H110.893C110.766 97.5098 110.743 97.4923 110.717 97.3571Z" fill="white"/>
<path d="M111.929 96.1149C112.12 95.8765 112.363 95.8484 112.617 95.9342C112.842 96.0086 112.981 96.1894 112.999 96.4218C113.025 96.7499 113.02 97.0803 113.018 97.4099C113.018 97.4433 112.957 97.495 112.915 97.5048C112.848 97.5208 112.775 97.5071 112.704 97.5094C112.614 97.5117 112.579 97.4684 112.579 97.381C112.582 97.157 112.588 96.9314 112.577 96.7074C112.573 96.617 112.542 96.5243 112.504 96.4408C112.437 96.2912 112.292 96.2987 112.165 96.3185C112.048 96.336 111.967 96.4225 111.946 96.541C111.929 96.6398 111.927 96.7431 111.925 96.8441C111.922 97.0172 111.925 97.1912 111.924 97.3643C111.924 97.4783 111.892 97.5086 111.775 97.5086C111.711 97.5094 111.647 97.5117 111.583 97.5079C111.519 97.5041 111.48 97.479 111.48 97.4016C111.483 96.9519 111.483 96.5023 111.48 96.0527C111.48 95.9744 111.523 95.9532 111.585 95.9494C111.643 95.9456 111.701 95.9479 111.758 95.9479C111.896 95.9479 111.919 95.9699 111.929 96.1149Z" fill="white"/>
<path d="M103.959 94.6878C103.563 95.0387 103.325 95.4656 103.182 95.9722C102.997 95.7398 102.829 95.5279 102.661 95.3167C102.509 95.1268 102.355 94.9392 102.209 94.744C102.162 94.6802 102.133 94.5997 102.112 94.5223C102.079 94.4053 102.183 94.2982 102.32 94.2899C102.507 94.2785 102.681 94.3385 102.857 94.3863C103.217 94.4851 103.577 94.583 103.959 94.6878Z" fill="#FAC605"/>
<path d="M114.125 97.5696C113.821 97.5536 113.555 97.4625 113.394 97.1792C113.293 97.0015 113.255 96.8154 113.286 96.608C113.311 96.4318 113.375 96.2784 113.49 96.1508C113.606 96.0225 113.761 95.9457 113.931 95.9116C114.109 95.8759 114.287 95.8812 114.453 95.9526C114.549 95.9936 114.628 96.0695 114.715 96.1311C114.725 96.1379 114.733 96.1516 114.735 96.163C114.751 96.2761 114.669 96.3369 114.6 96.3992C114.546 96.447 114.488 96.4371 114.428 96.3923C114.273 96.2769 114.109 96.2404 113.928 96.3407C113.823 96.3992 113.778 96.4979 113.744 96.6042C113.69 96.7729 113.762 97.0113 113.904 97.1093C114.039 97.2027 114.205 97.2172 114.375 97.1101C114.53 97.0113 114.66 97.0425 114.729 97.2103C114.762 97.2908 114.72 97.3607 114.651 97.4078C114.493 97.5164 114.319 97.5741 114.125 97.5696Z" fill="white"/>
<path d="M103.772 98.3168C104.067 98.6464 104.422 98.8796 104.853 99.036C104.684 99.1484 104.53 99.251 104.377 99.355C104.233 99.4515 104.09 99.5479 103.948 99.6482C103.865 99.709 103.771 99.7211 103.677 99.7036C103.593 99.6884 103.567 99.6079 103.573 99.5343C103.586 99.3611 103.605 99.1879 103.631 99.017C103.664 98.796 103.707 98.5773 103.746 98.3578C103.748 98.3472 103.758 98.3373 103.772 98.3168Z" fill="#FAC605"/>
<path d="M106.893 96.7193C106.893 96.5135 106.892 96.3077 106.893 96.1026C106.894 95.9871 106.932 95.9499 107.048 95.9484C107.352 95.9446 107.358 95.934 107.355 96.2499C107.352 96.613 107.355 96.976 107.355 97.3391C107.355 97.4781 107.324 97.5092 107.19 97.5092C107.138 97.51 107.087 97.51 107.035 97.5092C106.933 97.5092 106.894 97.4712 106.894 97.3649C106.892 97.1499 106.893 96.9342 106.893 96.7193Z" fill="white"/>
<path d="M107.418 98.5503C107.595 98.3346 107.765 98.1295 107.941 97.9161C108.066 98.0809 108.228 98.2321 108.256 98.4614C108.275 98.6042 108.218 98.6688 108.051 98.6817C107.95 98.6901 107.845 98.6673 107.743 98.6452C107.631 98.6209 107.522 98.5814 107.418 98.5503Z" fill="#FAC605"/>
<path d="M107.122 95.2939C107.338 95.2939 107.451 95.4785 107.347 95.6684C107.331 95.6965 107.298 95.7314 107.27 95.7329C107.171 95.7405 107.069 95.7496 106.973 95.7322C106.885 95.7162 106.842 95.559 106.878 95.4337C106.907 95.3273 106.966 95.2939 107.122 95.2939Z" fill="white"/>
<path d="M81.3334 19.066C80.1607 20.4521 79.8934 22.3736 79.7817 24.1858C79.3146 31.7718 81.0402 39.9851 86.6067 45.1596C88.5624 46.9779 90.9298 48.3503 93.4794 49.144C96.639 50.1275 100.44 50.0804 102.851 47.8133C103.73 46.9862 104.354 45.9305 104.961 44.8877C108.19 39.3403 111.327 33.609 112.656 27.3302C113.181 24.8511 113.388 22.1435 112.224 19.8915C110.918 17.3609 108.086 15.9064 105.263 15.5229C102.441 15.1401 99.5836 15.6649 96.7841 16.1882" fill="#311711"/>
<path d="M77.8972 69.4614C77.8972 69.4614 74.5348 71.4392 72.854 68.67C71.1725 65.9016 71.9639 64.1221 71.9639 64.1221C71.9639 64.1221 68.6023 63.8251 67.6134 59.6722C66.6246 55.5192 72.6566 51.8606 72.6566 51.8606C72.6566 51.8606 70.975 49.8829 72.1621 48.2013C73.3485 46.5205 76.5126 47.9051 76.5126 47.9051C76.5126 47.9051 74.1399 43.5546 76.7108 41.2799C79.2818 39.0052 81.7532 40.4893 81.7532 40.4893C81.7532 40.4893 83.1378 37.3244 87.8839 34.4573C92.6301 31.5894 101.343 33.9431 101.343 33.9431L110.232 38.6103C110.232 38.6103 114.286 37.7201 115.571 40.5873C116.857 43.4552 114.582 46.9162 114.582 46.9162C114.582 46.9162 118.34 46.9162 118.835 49.4872C119.329 52.0581 117.746 54.4308 117.746 54.4308C117.746 54.4308 122.493 53.5414 123.581 56.6068C124.669 59.6722 122.197 62.8363 122.197 62.8363C122.197 62.8363 123.284 64.2208 122.197 67.1875C121.109 70.1541 118.241 72.1311 118.241 72.1311C118.241 72.1311 99.1565 74.4058 98.6621 74.2084C98.1677 74.0101 92.1364 73.6144 91.8395 73.417C91.5425 73.2187 90.7518 72.4281 90.1587 72.3293" fill="#311711"/>
<path d="M74.2853 69.1819C74.2458 70.0523 72.7404 69.2928 72.4564 69.1143C71.9908 68.8219 71.5753 68.4132 71.2677 67.956C70.6601 67.0514 70.7946 66.2646 70.5508 65.2742C70.4239 64.7585 70.2082 64.4987 69.8186 64.1509C69.072 63.4848 68.4158 63.0245 67.9046 62.1116C65.8471 58.4394 68.3072 53.9788 72.4427 53.5709C72.6364 53.552 72.7837 53.3583 72.6721 53.1707C71.7591 51.638 70.8933 49.5729 72.0827 47.9339C73.4756 46.0161 75.783 47.1926 77.3673 48.1784C77.6362 48.3455 77.8777 47.981 77.6894 47.7607C76.7985 46.7217 75.8423 45.6212 75.4731 44.2708C75.0714 42.8019 75.5916 40.8773 77.2549 40.5089C79.6337 39.9811 82.9672 42.5923 84.1125 44.4819C84.7103 45.4662 84.8857 46.6344 85.3733 47.6688C85.8024 48.5787 86.4245 49.3785 87.1863 50.0347C88.5344 51.196 90.2243 51.8886 91.9841 52.1097C95.7133 52.579 100.727 51.3167 103.156 48.2468C104.59 46.4323 104.489 43.9693 106.009 42.1973C107.386 40.5925 109.381 39.6408 111.288 38.8183C112.684 38.216 114.632 37.2529 116.079 38.216C117.293 39.0249 117.389 40.7664 117.161 42.069C116.711 44.6277 115.021 46.9503 113.089 48.6091C113.237 48.6949 113.385 48.7815 113.533 48.8673C113.812 47.7714 115.046 47.2724 116.077 47.6157C117.147 47.9726 117.724 49.1172 117.959 50.1342C118.431 52.1651 117.68 54.3122 116.353 55.8518C116.493 55.9596 116.631 56.0667 116.771 56.1745C118.202 53.4168 122.073 53.9674 123.311 56.5839C124.617 59.3447 122.846 62.0524 121.298 64.2823C120.432 65.5302 119.384 66.7302 117.911 67.2542C116.46 67.7707 114.895 67.533 113.474 67.0454C110.751 66.1097 108.257 64.3354 105.839 62.8088C101.015 59.764 96.2897 56.2809 93.0626 51.4907C91.5512 49.2463 90.7195 46.907 89.8643 44.371C89.3896 42.9637 88.3901 42.0295 86.8764 42.6394C85.7007 43.1133 84.4786 44.5176 83.1039 43.8485C81.7573 43.1923 81.5143 41.1781 81.3684 39.8846C81.1907 38.3109 81.5082 37.0866 81.6555 35.5182H81.1239C81.1277 35.5835 81.1315 35.6451 81.1459 35.7096C81.1915 35.9139 81.4505 35.9542 81.5902 35.8266C81.7877 35.6466 81.7573 35.1248 81.7862 34.8886C81.8241 34.5696 81.8879 33.3863 81.9396 33.3392C81.7915 33.2997 81.6434 33.261 81.4953 33.2215C81.496 33.2382 81.4976 33.2549 81.4983 33.2716C81.5105 33.4903 81.7862 33.6369 81.9517 33.4592C83.0629 32.2713 83.4624 30.2472 83.23 28.6713C83.0788 27.6383 82.4485 27.0725 81.8067 26.3054C80.8672 25.1821 80.214 23.8279 79.8912 22.4015C79.2631 19.6232 80.012 16.5761 82.3619 14.8292C84.4855 13.2495 87.4103 12.9001 89.6843 14.353C89.805 14.4297 89.9797 14.3788 90.0481 14.2573C92.202 10.4864 96.4173 8.13721 100.763 8.2557C105.111 8.37418 108.957 11.2231 110.777 15.1095C111.766 17.2232 112.23 19.823 111.588 22.1053C111.274 23.2195 110.604 24.0337 110.041 25.0097C109.488 25.9667 109.146 27.014 108.822 28.0644C107.223 33.2443 106.068 38.5585 105.288 43.9199C105.239 44.2548 105.751 44.3999 105.8 44.0619C106.508 39.1988 107.531 34.3873 108.9 29.667C109.246 28.4723 109.564 27.2327 110.08 26.0965C110.499 25.1752 111.151 24.4028 111.611 23.5074C112.392 21.9921 112.511 20.183 112.307 18.5159C111.496 11.8679 105.174 6.81036 98.509 7.87823C94.7935 8.47368 91.457 10.718 89.5893 13.9892C89.7109 13.9573 89.8316 13.9254 89.9531 13.8943C86.0417 11.397 80.6879 13.8601 79.4545 18.1741C78.7702 20.5681 79.2411 23.2119 80.4844 25.3431C81.2196 26.6039 82.6155 27.5267 82.7378 29.0487C82.8449 30.3832 82.513 32.0807 81.5758 33.084C81.7269 33.1463 81.8788 33.2086 82.03 33.2716C82.0262 33.2063 82.0224 33.144 82.0079 33.0802C81.9624 32.8759 81.7034 32.8356 81.5636 32.9625C81.3662 33.1432 81.3958 33.665 81.3677 33.9012C81.3289 34.2195 81.2659 35.4035 81.2143 35.4506C81.3624 35.4901 81.5105 35.5289 81.6586 35.5683L81.6555 35.5182C81.6365 35.1726 81.155 35.1802 81.1239 35.5182C81.0456 36.3461 80.8421 37.1344 80.7274 37.9456C80.6029 38.8236 80.8003 39.8231 80.9287 40.6844C81.1786 42.3637 82.033 44.7948 84.1596 44.5351C85.1918 44.409 85.9559 43.6396 86.868 43.2265C89.2096 42.1647 89.4997 45.2817 90.061 46.8227C91.0704 49.5942 92.6691 52.1127 94.5831 54.3456C98.9199 59.4078 104.977 63.2987 110.811 66.4233C113.125 67.6621 115.953 68.7398 118.517 67.5808C120.96 66.4757 122.864 63.3633 123.839 60.9754C124.753 58.7371 124.304 55.8419 122.165 54.4459C120.208 53.1692 117.394 53.8186 116.311 55.9057C116.18 56.1601 116.522 56.4677 116.729 56.2277C118.514 54.158 119.471 50.6749 117.725 48.2688C116.529 46.6222 113.601 46.4445 113.02 48.7261C112.953 48.9949 113.269 49.1537 113.464 48.985C115.298 47.4121 116.767 45.3645 117.471 43.0351C117.959 41.4203 118.043 39.2049 116.652 37.9881C115.015 36.558 112.71 37.6289 111.02 38.3595C108.907 39.2725 106.687 40.3624 105.282 42.2566C104.615 43.1551 104.286 44.1318 103.983 45.1974C103.511 46.8607 102.792 48.1511 101.391 49.1916C98.9533 51.0053 95.4588 51.8924 92.4519 51.6281C89.063 51.3312 86.4769 49.3716 85.3771 46.1711C84.5371 43.7277 83.072 42.1745 80.8223 40.8993C78.9365 39.8307 76.1681 39.2451 75.1093 41.7173C74.0726 44.1394 75.8187 46.3936 77.3134 48.1374C77.4205 47.9977 77.5284 47.8587 77.6355 47.7197C75.8939 46.6359 73.3784 45.4533 71.7819 47.4281C70.2994 49.2615 71.1424 51.6418 72.2133 53.4396C72.29 53.3059 72.3668 53.173 72.4427 53.0393C67.7664 53.5011 65.0284 58.6688 67.6441 62.7086C68.4621 63.9724 69.912 64.6218 70.0935 66.2456C70.2029 67.2201 70.6282 68.1284 71.3004 68.8439C71.927 69.5107 74.7288 71.1209 74.8169 69.1819C74.8321 68.8401 74.3005 68.8408 74.2853 69.1819Z" fill="#311711"/>
<path d="M87.4933 43.7017C87.4933 43.7017 89.623 58.5083 83.1034 69.613C77.8088 78.6314 91.4709 85.0842 94.9441 84.6103C98.4173 84.1371 105.837 77.1906 106.626 72.7703C107.415 68.35 108.521 67.7188 108.521 67.7188C108.521 67.7188 101.272 62.2063 104.886 43.1123" fill="#F1A58D"/>
<path d="M92.8223 46.5508C92.8223 46.5508 93.7534 45.691 95.9028 45.7632C98.0515 45.8346 98.4814 46.7657 98.4814 46.7657C98.4814 46.7657 96.3327 48.5566 92.8223 46.5508Z" stroke="black" stroke-width="0.666667" stroke-miterlimit="10"/>
<g opacity="0.5">
<path d="M86.9551 43.392L87.0508 46.8485L87.1708 51.3379C87.1708 51.3379 88.5865 56.113 96.3297 55.2889C103.48 54.5279 104.756 46.2599 104.756 46.2599C104.756 46.2599 100.959 51.322 96.4034 49.9723C91.8478 48.6219 88.9799 45.6697 88.9799 45.6697" fill="#953F1E"/>
</g>
<path d="M107.723 22.4094L96.1805 17.7286C96.1683 17.4886 96.1615 17.3572 96.1615 17.3572L95.7134 17.5395L95.2645 17.3572C95.2645 17.3572 95.2577 17.4886 95.2455 17.7286L83.7025 22.4094C83.7025 22.4094 80.9508 38.4077 85.678 45.7742C89.8355 52.2543 93.2138 52.9621 95.2463 53.0305C95.2524 53.0313 95.2577 53.0366 95.2645 53.0366C95.367 53.0366 95.4779 53.0373 95.5934 53.0381H95.604H95.7134H95.822H95.8326C95.9481 53.0373 96.0589 53.0366 96.1615 53.0366C96.1683 53.0366 96.1736 53.0313 96.1797 53.0305C98.2122 52.9621 101.59 52.2543 105.748 45.7742C110.474 38.4077 107.723 22.4094 107.723 22.4094Z" fill="#F1A58D"/>
<path d="M90.168 42.61C90.168 42.61 92.7473 43.3983 95.3258 43.3983C97.9051 43.3983 100.842 43.0399 100.842 43.0399C100.842 43.0399 100.412 47.3379 96.3291 47.6964C92.4928 48.0329 90.5265 45.1893 90.168 42.61Z" fill="#1E130F"/>
<path d="M99.8367 43.4694C99.8367 43.4694 99.5504 44.3292 98.6906 44.6876C97.8309 45.0454 93.8191 45.4753 90.8821 44.1856L90.3809 42.9681C90.3809 42.9681 97.4724 44.1856 99.8367 43.4694Z" fill="white"/>
<path d="M81.5514 27.2382C81.5514 27.2382 81.354 30.3036 81.6502 31.7869C81.9471 33.2695 83.8262 34.5553 83.8262 34.5553C83.8262 34.5553 84.3206 33.4677 84.5181 30.4023C84.7163 27.3369 84.8143 26.3481 84.8143 26.3481C84.8143 26.3481 92.4283 23.3814 94.5056 19.9211C96.5821 16.46 90.6488 12.999 90.6488 12.999C90.6488 12.999 84.831 11.7906 81.5514 16.2618C78.2886 20.7118 80.0681 25.6561 81.5514 27.2382Z" fill="#311711"/>
<path d="M92.2362 19.3922C92.2362 19.3922 94.9058 23.8421 101.531 25.1272C108.156 26.4131 112.409 24.831 112.409 24.831C112.409 24.831 115.177 18.4033 108.552 11.9763C101.927 5.54863 91.2473 9.50414 89.2695 13.4589" fill="#311711"/>
<path d="M106.773 24.6671C106.773 24.6671 107.268 28.6226 107.268 31.2922C107.268 33.9619 107.762 34.8521 107.762 34.8521C107.762 34.8521 110.037 33.6657 110.136 32.5781C110.235 31.4897 110.432 28.6226 110.927 27.5342C111.421 26.4473 112.608 22.1949 110.927 19.8222C109.246 17.4487 106.773 17.5474 106.773 17.5474" fill="#311711"/>
<path d="M90.8795 32.7607C90.8795 33.3744 90.5909 33.8711 90.2347 33.8711C89.8792 33.8711 89.5898 33.3744 89.5898 32.7607C89.5898 32.1478 89.8792 31.6503 90.2347 31.6503C90.5909 31.6503 90.8795 32.1478 90.8795 32.7607Z" fill="#1E130F"/>
<path d="M101.987 32.8315C101.987 33.4452 101.698 33.9419 101.342 33.9419C100.986 33.9419 100.697 33.4452 100.697 32.8315C100.697 32.2186 100.986 31.7211 101.342 31.7211C101.698 31.7211 101.987 32.2186 101.987 32.8315Z" fill="#1E130F"/>
<path d="M87.7324 28.7856C87.7324 28.7856 88.8071 26.2064 90.8844 26.2785C92.9616 26.3499 93.3201 28.6429 93.3201 28.6429C93.3201 28.6429 90.4545 26.2064 87.7324 28.7856Z" fill="#1E130F"/>
<path d="M99.1211 30.0029C99.1211 30.0029 100.196 27.4236 102.273 27.4958C104.351 27.5672 104.709 29.8601 104.709 29.8601C104.709 29.8601 101.843 27.4236 99.1211 30.0029Z" fill="#1E130F"/>
<path d="M84.4937 34.7475C84.4937 34.7475 82.6291 29.8039 79.2728 31.6176C75.5117 33.6508 79.4414 41.062 85.5988 40.9048" fill="#F1A58D"/>
<path d="M107.57 35.5118C107.57 35.5118 109.435 30.5674 112.791 32.3819C116.552 34.4151 112.621 41.8264 106.465 41.6684" fill="#F1A58D"/>
<path d="M92.5893 20.3713C94.2526 23.5514 97.3575 25.6241 100.797 26.4785C104.01 27.2775 108.068 27.2487 110.397 24.5456C110.619 24.2873 110.245 23.9091 110.021 24.1688C107.733 26.8264 103.675 26.7246 100.562 25.8671C97.3962 24.9952 94.5875 23.0455 93.048 20.1024C92.89 19.7994 92.4313 20.0683 92.5893 20.3713Z" fill="#311711"/>
<path d="M83.7476 27.6792C88.3836 25.9703 93.5999 23.8178 95.1417 18.6395C95.2397 18.3106 94.727 18.1701 94.6298 18.4982C93.145 23.4844 88.0532 25.5275 83.6063 27.1665C83.2881 27.2835 83.4255 27.7977 83.7476 27.6792Z" fill="#311711"/>
<path d="M89.4958 81.6594C89.4958 81.6594 96.5645 79.4037 97.9179 79.8548C99.2721 80.306 104.235 75.493 104.235 75.493L108.295 69.3265C108.295 69.3265 115.515 75.493 112.507 82.2609C109.499 89.0289 106.34 95.9473 105.588 97.3007C104.837 98.6541 102.28 102.565 100.024 103.918C97.7676 105.272 93.2561 105.573 91.4507 104.52C89.6461 103.467 88.5935 100.008 86.7889 98.8053C84.9843 97.6015 80.6224 92.0373 80.1713 90.9839C79.7201 89.9312 78.9682 85.5694 78.8171 83.9151C78.6675 82.2609 80.1713 77.2976 80.472 76.8472C80.7728 76.3953 82.7278 75.1922 82.7278 75.1922" fill="#DAEDE4"/>
<path d="M126.977 74.4813C122.976 72.9729 116.553 68.1758 109.152 64.8879L105.138 78.2856C105.138 78.2856 100.102 102.288 96.6647 105.266C90.9024 103.961 83.7903 88.4585 83.7903 88.4585L81.369 65.3566C85.102 64.9031 68.8569 72.4762 68.5781 72.8347C64.5664 77.9925 63.1591 100.494 64.3052 101.639C65.452 102.786 68.3169 105.651 68.3169 105.651C68.3169 105.651 76.0023 133.315 68.5356 150.247C66.2639 155.398 71.9466 158.481 71.9466 158.481C71.9466 158.481 78.7966 163.879 98.5521 163.691C114.243 164.73 124.444 158.496 124.444 158.496C124.444 158.496 130.551 155.925 128.894 150.545C121.455 126.398 128.882 105.651 128.882 105.651C128.882 105.651 131.746 102.786 132.892 101.639C134.039 100.494 126.888 74.4479 126.977 74.4813Z" fill="#007336"/>
<path d="M126.535 74.3493C132.696 75.2091 150.269 94.6183 156.143 105.65C162.018 116.682 156.716 124.849 144.682 123.129C132.647 121.41 124.48 107.8 124.48 107.8C124.48 107.8 116.709 94.0889 121.293 85.492" fill="#DAEDE4"/>
<path d="M126.789 74.4029C126.789 74.4029 123.526 80.9384 122.212 89.4776C119.633 106.24 127.697 112.201 127.697 112.201L126.687 115.355C126.687 115.355 118.254 108.617 118.254 94.147C118.254 79.6761 123.49 72.7859 123.49 72.7859" fill="#007336"/>
<path d="M126.689 115.357C126.34 115.103 118.734 109.419 118.734 94.7029C118.734 80.1492 123.408 73.0812 123.606 72.7881L125.028 73.5278C124.981 73.5954 120.365 80.6991 120.365 94.7029C120.365 108.544 127.22 113.909 127.299 113.966L126.689 115.357Z" fill="#FAC605"/>
<path d="M69.18 72.3147C69.18 72.3147 50.209 81.9635 44.0479 94.8577C37.8875 107.752 39.2174 117.67 44.9487 122.828C50.6791 127.986 55.8711 115.721 56.0139 113.142C56.1575 110.564 56.7127 102.068 68.3179 98.7729C79.9232 95.4774 73.6185 80.1475 73.6185 79.7177C73.6185 79.2878 69.18 72.3147 69.18 72.3147Z" fill="#DAEDE4"/>
<path d="M69.1786 72.3146C69.1786 72.3146 68.5255 79.0059 69.0328 87.0248C69.749 98.343 67.8867 109.231 67.8867 109.231L68.4594 113.816C68.4594 113.816 72.3276 105.363 72.042 91.1793C71.843 81.3459 72.9268 82.2976 73.6939 70.21" fill="#007336"/>
<path d="M109.759 65.8628C109.759 65.8628 107.626 74.8835 102.706 83.412C97.7861 91.9405 94.6402 96.2811 94.6402 96.2811C94.6402 96.2811 88.4396 89.2458 84.6671 80.3892C80.8954 71.5325 81.2129 66.9664 81.2129 66.9664L78.9245 68.4869C78.9245 68.4869 75.8082 83.9034 81.5486 91.4483C87.2897 98.9933 94.6699 111.294 94.6699 111.294C94.6699 111.294 116.434 88.1764 112.498 67.0188" fill="#007336"/>
<path d="M138.932 113.173C138.932 113.173 142.4 103.584 142.197 94.4027C141.992 85.2218 140.972 78.2845 140.972 78.2845L149.337 78.4888C149.337 78.4888 166.476 108.685 157.294 118.886" fill="#DAEDE4"/>
<path d="M74.2074 71.1756L70.9909 72.5366C70.9909 72.5366 71.0866 84.9576 71.0866 92.7592C71.0866 100.56 69.7863 102.771 70.046 104.331C70.3065 105.891 72.257 107.062 74.5978 107.582C76.9378 108.102 78.7583 108.102 78.7583 108.102L81.2283 103.681L82.0083 99.6503" fill="#007336"/>
<path d="M69.8157 103.75C69.6927 103.012 69.8317 102.262 70.042 101.124C70.3626 99.3998 70.8448 96.7947 70.8448 92.0432C70.8448 84.3373 70.6497 71.6558 70.6474 71.5282L72.2773 71.5023C72.2788 71.6299 72.4747 84.3244 72.4747 92.0432C72.4747 96.9443 71.9758 99.6375 71.6454 101.421C71.4661 102.388 71.3476 103.027 71.4236 103.481L69.8157 103.75Z" fill="#FAC605"/>
<path d="M96.7726 29.6683C96.3109 32.3759 95.9782 35.338 96.5691 38.0441C96.642 38.3783 97.1547 38.237 97.0818 37.9028C96.5137 35.3023 96.841 32.4131 97.2853 29.8095C97.3423 29.4753 96.8304 29.331 96.7726 29.6683Z" fill="#1E130F"/>
<path d="M94.0992 39.8585C95.0166 40.1706 96.1179 40.2899 97.0346 39.9298C97.3491 39.806 97.2124 39.2919 96.8934 39.4172C96.0564 39.746 95.0782 39.6306 94.2404 39.3458C93.9161 39.2349 93.7764 39.7483 94.0992 39.8585Z" fill="#1E130F"/>
<path d="M80.184 33.9174C80.0799 33.9037 80.4096 33.9691 80.4749 33.9873C80.7764 34.0693 81.0665 34.187 81.3415 34.3344C82.2954 34.8448 82.979 35.6742 83.3838 36.6706C83.5114 36.9836 84.0256 36.8461 83.8965 36.5286C83.263 34.9701 81.9134 33.6167 80.184 33.3858C79.846 33.3402 79.849 33.8726 80.184 33.9174Z" fill="#1E130F"/>
<path d="M81.1609 36.4977C81.1465 36.6147 81.1875 36.3739 81.1982 36.3336C81.2369 36.1787 81.2878 36.0268 81.3607 35.8848C81.5863 35.4496 81.9592 35.2392 82.4513 35.3303C82.7855 35.3926 82.9291 34.8807 82.5926 34.8184C81.4754 34.6096 80.7584 35.4587 80.6293 36.4977C80.5875 36.8364 81.1192 36.8334 81.1609 36.4977Z" fill="#1E130F"/>
<path d="M111.874 34.1499C110.145 34.3808 108.795 35.7342 108.161 37.2935C108.033 37.6102 108.547 37.7477 108.674 37.4347C109.079 36.439 109.763 35.6081 110.717 35.0993C110.981 34.9572 111.258 34.8433 111.548 34.7613C111.622 34.74 111.975 34.6679 111.874 34.6815C112.208 34.6367 112.213 34.1043 111.874 34.1499Z" fill="#1E130F"/>
<path d="M111.426 37.2619C111.297 36.2228 110.581 35.3737 109.463 35.5826C109.128 35.6449 109.269 36.1575 109.605 36.0945C110.096 36.0033 110.47 36.2137 110.695 36.6489C110.765 36.7849 110.814 36.9299 110.853 37.0773C110.866 37.1297 110.907 37.3689 110.895 37.2619C110.936 37.5968 111.469 37.6014 111.426 37.2619Z" fill="#1E130F"/>
<path d="M139.037 113.396C143.083 102.145 142.784 90.0502 141.078 78.3659C141.028 78.0287 140.516 78.1722 140.565 78.5072C142.257 90.095 142.536 102.098 138.525 113.255C138.409 113.577 138.923 113.716 139.037 113.396Z" fill="#1E130F"/>
<path d="M142.717 87.7883C142.717 87.7883 139.12 86.1728 138.609 83.8723C138.07 81.4411 138.44 79.6198 138.44 79.6198C138.44 79.6198 134.346 73.887 136.53 71.4308C138.713 68.9746 141.717 68.2918 141.717 68.2918C141.717 68.2918 150.177 69.3839 150.452 70.8847C150.724 72.3863 149.768 73.4777 150.452 74.4339C151.134 75.3886 152.908 75.9347 152.635 77.4362C152.362 78.937 150.997 79.4831 151.816 80.712C152.635 81.9401 153.454 83.4409 151.543 84.8057C149.631 86.1713 146.265 88.1977 142.717 87.7883Z" fill="#F1A58D"/>
<path d="M136.572 73.264C136.572 73.264 137.791 67.0626 137.182 64.8266C136.572 62.5899 136.063 59.2351 137.385 58.727C138.707 58.2189 140.435 60.6584 140.943 62.8952C141.452 65.1312 140.841 67.1644 142.671 69.4011" fill="#F1A58D"/>
<path d="M146.532 69.4938C144.881 69.7513 143.232 70.0604 141.606 70.444C140.277 70.7584 137.91 70.9711 137.801 72.6701C137.748 73.5116 137.876 74.6744 138.826 74.9319C139.491 75.1119 140.437 74.9129 141.105 74.8749C142.94 74.7716 144.772 74.6334 146.603 74.4853C146.941 74.458 146.944 73.9256 146.603 73.9537C145.256 74.0623 143.91 74.1625 142.562 74.2529C141.662 74.3129 140.76 74.3744 139.858 74.4048C139.627 74.4124 139.242 74.4906 139.021 74.4162C138.408 74.2089 138.021 72.7779 138.395 72.1832C138.72 71.6675 139.734 71.4982 140.274 71.3402C141.187 71.0721 142.117 70.864 143.047 70.6695C144.25 70.4189 145.46 70.1956 146.673 70.0065C147.01 69.9533 146.867 69.4414 146.532 69.4938Z" fill="#1E130F"/>
<path d="M146.223 79.126C145.088 78.9892 143.955 78.832 142.825 78.6528C141.46 78.4363 138.479 78.39 139.036 76.2155C139.379 74.8788 141.926 74.8393 143.028 74.6806C144.168 74.5158 145.314 74.3859 146.461 74.2879C146.8 74.259 146.803 73.7274 146.461 73.7562C144.947 73.8861 143.43 74.0623 141.931 74.316C140.544 74.5522 138.612 74.6775 138.468 76.435C138.302 78.4599 140.071 78.709 141.607 78.9847C143.137 79.2604 144.68 79.4715 146.223 79.6576C146.562 79.6979 146.559 79.1662 146.223 79.126Z" fill="#1E130F"/>
<path d="M144.692 86.0578C143.77 85.6226 142.866 85.1395 142.001 84.601C141.453 84.2593 140.785 83.8833 140.396 83.3547C139.983 82.7942 139.807 81.6883 140.438 81.1977C140.709 80.9881 140.331 80.6144 140.062 80.8217C138.867 81.7491 139.669 83.5195 140.602 84.2745C141.743 85.1957 143.101 85.893 144.423 86.5165C144.731 86.6616 145.001 86.2036 144.692 86.0578Z" fill="#1E130F"/>
<path d="M115.555 68.3089L93.9453 107.187L92.2645 108.715L76.832 69.2932L78.3594 68.5292L93.0285 104.743L114.027 67.2395" fill="#FAC605"/>
<path d="M92.916 46.5571C92.916 46.5571 93.7196 45.8325 95.5728 45.8925C97.426 45.9532 97.7974 46.7378 97.7974 46.7378C97.7974 46.7378 95.9434 48.247 92.916 46.5571Z" fill="#E12D30"/>
<g opacity="0.5">
<path d="M71.4605 139.936L74.5973 148.49L110.81 134.233L106.532 120.832C106.532 120.832 107.673 117.98 107.388 114.273C107.103 110.567 109.099 110.281 107.673 108.285C106.247 106.289 99.6891 106.575 99.6891 106.575L92.8459 86.6151L77.734 93.1734L69.1797 102.583" fill="#005527"/>
</g>
<path d="M85.8001 62.0148L95.6722 80.1541L87.8516 88.5763L79.582 66.7686L85.8001 62.0148Z" fill="#DAEDE4"/>
<path d="M95.2188 80.3045L103.074 88.5763L112.063 66.3174L105.981 61.9115C105.981 61.9115 104.016 65.6604 95.2188 80.3045Z" fill="#DAEDE4"/>
<path d="M88.5143 88.3919C90.6243 86.0101 92.7349 83.6283 94.8448 81.2465C95.0712 80.9913 94.6967 80.6138 94.4689 80.8705C92.359 83.2523 90.2483 85.6342 88.1384 88.016C87.9121 88.2712 88.2873 88.6486 88.5143 88.3919Z" fill="#1E130F"/>
<path d="M96.0939 81.3898C98.1703 83.7222 100.247 86.0547 102.324 88.3864C102.552 88.6423 102.927 88.2656 102.7 88.0104C100.623 85.678 98.5463 83.3463 96.4698 81.0138C96.242 80.7579 95.8668 81.1354 96.0939 81.3898Z" fill="#1E130F"/>
<path d="M55.1328 96.6237L72.7549 142.901L106.711 130.865L89.8043 84.3022L55.1328 96.6237Z" fill="#F5B786"/>
<path d="M54.418 98.0569L72.0408 144.334L105.996 132.299L89.0895 85.7354L54.418 98.0569Z" fill="#ECE40D"/>
<path d="M87.127 116.347C87.127 116.347 88.8465 113.482 88.8465 111.858C88.8465 110.234 89.3242 106.892 91.425 105.268C93.5266 103.644 95.8294 105.256 95.8294 105.256C96.1157 105.925 96.6527 106.783 97.735 106.86C101.125 107.1 104.248 106.966 104.534 108.113C104.82 109.259 104.686 109.941 103.46 110.903C102.999 111.264 103.392 111.523 103.582 112.669C103.773 113.815 103.513 115.005 103.991 115.865C104.468 116.725 103.952 117.929 103.378 119.266C102.805 120.603 94.7684 124.466 89.6105 122.651" fill="#F1A58D"/>
<path d="M91.5332 107.68C91.5332 107.68 90.9256 105.595 92.3687 104.703C93.8117 103.81 96.6227 101.626 97.3822 102.619C98.1417 103.611 97.9139 106.489 97.61 107.184C97.3062 107.878 95.6353 108.671 95.6353 108.671L91.5332 107.68Z" fill="#F1A58D"/>
<path d="M95.5519 106.197C96.1512 106.68 96.9229 106.962 97.6664 107.117C98.0006 107.187 98.1434 106.674 97.8077 106.604C97.3186 106.502 96.8446 106.35 96.4026 106.114C96.2796 106.048 96.158 105.977 96.0418 105.899C96.0107 105.879 95.8679 105.772 95.9279 105.821C95.6636 105.608 95.2854 105.982 95.5519 106.197Z" fill="#1E130F"/>
<path d="M109.465 95.9685C109.613 96.1128 109.58 96.2935 109.538 96.4591C109.373 97.107 109.195 97.7503 109.022 98.3959C109.015 98.4202 109.006 98.4437 108.994 98.4786C108.594 97.9941 108.092 97.6857 107.475 97.5429C107.59 97.4351 107.698 97.331 107.808 97.2315C107.895 97.1525 107.988 97.0804 108.075 97.0014C108.374 96.7295 108.669 96.4515 108.974 96.1849C109.073 96.0983 109.196 96.0399 109.31 95.9685H109.465Z" fill="#FAC605"/>
<path d="M117 99.7824C116.969 99.787 116.937 99.7916 116.907 99.7976C116.653 99.8516 116.533 100.181 116.657 100.442C116.757 100.651 116.999 100.737 117.209 100.598C117.322 100.524 117.361 100.416 117.384 100.3C117.43 100.073 117.266 99.7786 117 99.7824ZM117.834 100.366C117.783 100.485 117.746 100.613 117.679 100.721C117.538 100.943 117.318 101.042 117.063 101.058C116.838 101.073 116.635 101.019 116.453 100.872C116.303 100.751 116.221 100.594 116.181 100.42C116.125 100.178 116.163 99.9419 116.311 99.7346C116.445 99.5455 116.627 99.4346 116.86 99.3996C117.117 99.3602 117.342 99.4217 117.544 99.5766C117.692 99.6898 117.774 99.8478 117.814 100.029C117.818 100.045 117.828 100.06 117.834 100.076V100.366Z" fill="white"/>
<path d="M105.994 95.9689C106.181 96.0768 106.274 96.2613 106.38 96.4353C106.575 96.7543 106.77 97.0732 106.964 97.393C106.982 97.4219 106.994 97.4538 107.011 97.4887C106.483 97.4948 106.001 97.63 105.541 97.9186C105.558 97.7264 105.573 97.554 105.587 97.3808C105.596 97.2867 105.603 97.1917 105.609 97.096C105.623 96.8811 105.629 96.6646 105.65 96.4497C105.663 96.3137 105.669 96.1725 105.761 96.057C105.786 96.0259 105.814 95.9985 105.84 95.9689H105.994Z" fill="#FAC605"/>
<path d="M103.176 100.79C103.291 100.598 103.493 100.511 103.666 100.388C103.873 100.241 104.084 100.097 104.294 99.9537C104.314 99.94 104.338 99.9324 104.374 99.9157C104.347 100.412 104.454 100.867 104.682 101.316C104.576 101.299 104.485 101.288 104.396 101.27C104.061 101.202 103.726 101.135 103.394 101.056C103.315 101.037 103.248 100.97 103.176 100.925V100.79Z" fill="#FAC605"/>
<path d="M107.556 103.374C107.372 103.152 107.188 102.93 107 102.703C107.333 102.633 107.646 102.568 107.96 102.502C107.95 102.564 107.936 102.65 107.921 102.736C107.902 102.866 107.892 103.001 107.857 103.127C107.833 103.215 107.773 103.292 107.73 103.374H107.556Z" fill="#FAC605"/>
<path d="M105.708 99.5944C105.997 99.2618 106.465 99.3681 106.641 99.6248C106.73 99.5648 106.81 99.4888 106.906 99.4494C107.194 99.3301 107.565 99.3575 107.743 99.6658C107.797 99.7577 107.831 99.8701 107.838 99.9757C107.857 100.254 107.856 100.532 107.86 100.81C107.863 100.972 107.832 101 107.676 101.003C107.379 101.007 107.396 100.986 107.399 100.731C107.401 100.538 107.403 100.345 107.398 100.153C107.395 100.046 107.374 99.9392 107.284 99.8648C107.185 99.7835 107.07 99.7843 106.961 99.8268C106.832 99.877 106.785 99.9932 106.783 100.122C106.778 100.364 106.782 100.605 106.781 100.845C106.781 100.962 106.743 101.001 106.629 101.002C106.321 101.006 106.314 101.018 106.319 100.693C106.322 100.504 106.328 100.314 106.318 100.125C106.303 99.8549 106.141 99.7516 105.893 99.8276C105.781 99.8618 105.705 99.9757 105.703 100.136C105.699 100.37 105.702 100.605 105.701 100.839C105.701 100.967 105.665 101.002 105.536 101.002C105.498 101.003 105.459 101.001 105.42 101.003C105.271 101.006 105.247 100.983 105.243 100.824C105.234 100.429 105.234 100.033 105.243 99.6385C105.247 99.479 105.283 99.4258 105.438 99.4402C105.473 99.444 105.508 99.441 105.543 99.441C105.669 99.441 105.694 99.463 105.708 99.5944Z" fill="white"/>
<path d="M109.793 100.68C109.837 100.658 109.927 100.633 109.987 100.576C110.141 100.43 110.162 100.249 110.101 100.047C110.048 99.8686 109.919 99.7896 109.756 99.7744C109.629 99.7623 109.517 99.8344 109.45 99.9445C109.351 100.107 109.34 100.283 109.421 100.457C109.485 100.595 109.598 100.665 109.793 100.68ZM109.371 100.851C109.324 101.001 109.324 100.999 109.171 101.002C108.924 101.008 108.919 101 108.92 100.747C108.922 100.168 108.921 99.5899 108.921 99.0119C108.921 98.901 108.957 98.8638 109.068 98.8622C109.382 98.8577 109.368 98.8615 109.364 99.1524C109.361 99.2967 109.364 99.441 109.365 99.5861C109.365 99.5906 109.37 99.5952 109.374 99.6028C109.544 99.4106 109.758 99.3514 110.002 99.403C110.248 99.4554 110.417 99.602 110.507 99.839C110.63 100.164 110.616 100.478 110.422 100.771C110.188 101.125 109.636 101.164 109.371 100.851Z" fill="white"/>
<path d="M111.985 100.225C111.968 100.152 111.961 100.075 111.931 100.008C111.84 99.7982 111.623 99.7132 111.412 99.8301C111.239 99.9258 111.149 100.257 111.29 100.489C111.398 100.668 111.621 100.729 111.794 100.611C111.928 100.519 111.978 100.386 111.985 100.225ZM111.983 100.848C111.756 101.118 111.372 101.101 111.149 100.975C110.929 100.852 110.819 100.648 110.78 100.412C110.743 100.186 110.766 99.9585 110.881 99.7527C110.991 99.5544 111.154 99.4321 111.388 99.3995C111.622 99.3668 111.782 99.4116 111.963 99.5848C112.013 99.4397 112.013 99.4428 112.169 99.4397C112.435 99.4344 112.437 99.4382 112.435 99.7002C112.431 100.079 112.434 100.458 112.434 100.837C112.434 100.979 112.411 101.001 112.265 101.001H112.159C112.031 101.001 112.008 100.983 111.983 100.848Z" fill="white"/>
<path d="M113.188 99.6073C113.38 99.3688 113.623 99.3407 113.878 99.4266C114.102 99.501 114.241 99.6817 114.259 99.9142C114.284 100.242 114.28 100.573 114.279 100.902C114.279 100.936 114.217 100.987 114.175 100.997C114.108 101.013 114.034 100.999 113.964 101.002C113.875 101.004 113.839 100.961 113.84 100.873C113.842 100.649 113.848 100.424 113.837 100.2C113.833 100.109 113.802 100.017 113.764 99.9331C113.696 99.7835 113.552 99.7911 113.425 99.8109C113.308 99.8283 113.227 99.9149 113.206 100.033C113.188 100.132 113.187 100.235 113.185 100.336C113.182 100.51 113.185 100.684 113.184 100.857C113.184 100.971 113.152 101.001 113.036 101.001C112.971 101.002 112.907 101.004 112.843 101C112.779 100.996 112.739 100.971 112.74 100.894C112.743 100.444 112.743 99.9947 112.74 99.545C112.739 99.4668 112.783 99.4455 112.846 99.4417C112.903 99.4372 112.961 99.4402 113.018 99.4402C113.156 99.4402 113.179 99.4622 113.188 99.6073Z" fill="white"/>
<path d="M105.225 98.1799C104.829 98.5308 104.591 98.9577 104.448 99.4635C104.263 99.2319 104.095 99.0199 103.927 98.8088C103.775 98.6182 103.62 98.4313 103.475 98.2361C103.428 98.1723 103.398 98.0918 103.377 98.0144C103.344 97.8974 103.449 97.7903 103.586 97.782C103.773 97.7706 103.947 97.8306 104.124 97.8784C104.482 97.9771 104.842 98.0751 105.225 98.1799Z" fill="#FAC605"/>
<path d="M115.391 101.061C115.087 101.045 114.821 100.954 114.66 100.671C114.558 100.493 114.521 100.307 114.551 100.099C114.576 99.9232 114.641 99.7697 114.756 99.6421C114.871 99.513 115.026 99.4371 115.196 99.4029C115.374 99.3672 115.553 99.3725 115.718 99.4439C115.814 99.4849 115.894 99.5609 115.98 99.6224C115.99 99.6292 115.999 99.6429 116 99.6543C116.016 99.7675 115.935 99.8282 115.866 99.8905C115.812 99.9384 115.754 99.9285 115.693 99.8837C115.539 99.7682 115.374 99.7318 115.194 99.832C115.089 99.8905 115.043 99.9892 115.009 100.096C114.956 100.264 115.027 100.503 115.17 100.601C115.305 100.694 115.471 100.708 115.64 100.601C115.795 100.503 115.926 100.534 115.995 100.702C116.027 100.782 115.985 100.852 115.916 100.899C115.759 101.008 115.585 101.065 115.391 101.061Z" fill="white"/>
<path d="M105.038 101.809C105.333 102.139 105.688 102.371 106.118 102.528C105.95 102.641 105.796 102.743 105.642 102.847C105.499 102.944 105.355 103.04 105.214 103.141C105.13 103.201 105.036 103.213 104.943 103.196C104.859 103.181 104.833 103.1 104.839 103.027C104.852 102.853 104.871 102.68 104.896 102.509C104.93 102.288 104.972 102.07 105.012 101.85C105.014 101.839 105.024 101.83 105.038 101.809Z" fill="#FAC605"/>
<path d="M108.153 100.211C108.153 100.005 108.153 99.7996 108.153 99.5945C108.153 99.4791 108.192 99.4419 108.308 99.4403C108.611 99.4365 108.619 99.4259 108.615 99.7419C108.611 100.105 108.614 100.468 108.614 100.831C108.614 100.97 108.583 101.001 108.45 101.001C108.398 101.001 108.347 101.002 108.295 101.001C108.193 101.001 108.154 100.963 108.153 100.857C108.152 100.642 108.153 100.426 108.153 100.211Z" fill="white"/>
<path d="M108.68 102.043C108.857 101.827 109.027 101.622 109.202 101.409C109.328 101.573 109.491 101.725 109.519 101.954C109.536 102.097 109.48 102.161 109.314 102.174C109.212 102.182 109.107 102.16 109.005 102.138C108.892 102.113 108.784 102.074 108.68 102.043Z" fill="#FAC605"/>
<path d="M108.388 98.7843C108.603 98.7843 108.716 98.9688 108.613 99.1587C108.597 99.1868 108.563 99.221 108.536 99.2233C108.436 99.2309 108.335 99.24 108.239 99.2225C108.15 99.2066 108.108 99.0494 108.143 98.924C108.173 98.8177 108.232 98.7843 108.388 98.7843Z" fill="white"/>
<path d="M139.604 78.3506C138.409 82.1907 143.797 83.4371 146.588 83.7978C146.927 83.8419 146.923 83.3095 146.588 83.2662C145.274 83.096 143.926 82.6449 142.692 82.1786C141.001 81.5375 139.472 80.5638 140.117 78.4927C140.219 78.1646 139.706 78.0248 139.604 78.3506Z" fill="#1E130F"/>
</g>
</svg>
