<svg width="81" height="80" viewBox="0 0 81 80" fill="none" xmlns="http://www.w3.org/2000/svg">
<circle cx="40.5" cy="40" r="40" fill="#E9F7ED"/>
<path fill-rule="evenodd" clip-rule="evenodd" d="M40.5 47C38.846 47 37.5 45.654 37.5 44C37.5 42.346 38.846 41 40.5 41C42.154 41 43.5 42.346 43.5 44C43.5 45.654 42.154 47 40.5 47ZM40.5 37C36.64 37 33.5 40.14 33.5 44C33.5 47.86 36.64 51 40.5 51C44.36 51 47.5 47.86 47.5 44C47.5 40.14 44.36 37 40.5 37ZM56.5 52C56.5 53.102 55.604 54 54.5 54H26.5C25.396 54 24.5 53.102 24.5 52V36C24.5 34.898 25.396 34 26.5 34H54.5C55.604 34 56.5 34.898 56.5 36V52ZM36.5 27C36.5 26.448 36.95 26 37.5 26H43.5C44.05 26 44.5 26.448 44.5 27V30H36.5V27ZM54.5 30H48.5V27C48.5 24.244 46.258 22 43.5 22H37.5C34.742 22 32.5 24.244 32.5 27V30H26.5C23.192 30 20.5 32.692 20.5 36V52C20.5 55.308 23.192 58 26.5 58H54.5C57.808 58 60.5 55.308 60.5 52V36C60.5 32.692 57.808 30 54.5 30Z" fill="#009530"/>
<mask id="mask0_19447_17017" style="mask-type:alpha" maskUnits="userSpaceOnUse" x="20" y="22" width="41" height="36">
<path fill-rule="evenodd" clip-rule="evenodd" d="M40.5 47C38.846 47 37.5 45.654 37.5 44C37.5 42.346 38.846 41 40.5 41C42.154 41 43.5 42.346 43.5 44C43.5 45.654 42.154 47 40.5 47ZM40.5 37C36.64 37 33.5 40.14 33.5 44C33.5 47.86 36.64 51 40.5 51C44.36 51 47.5 47.86 47.5 44C47.5 40.14 44.36 37 40.5 37ZM56.5 52C56.5 53.102 55.604 54 54.5 54H26.5C25.396 54 24.5 53.102 24.5 52V36C24.5 34.898 25.396 34 26.5 34H54.5C55.604 34 56.5 34.898 56.5 36V52ZM36.5 27C36.5 26.448 36.95 26 37.5 26H43.5C44.05 26 44.5 26.448 44.5 27V30H36.5V27ZM54.5 30H48.5V27C48.5 24.244 46.258 22 43.5 22H37.5C34.742 22 32.5 24.244 32.5 27V30H26.5C23.192 30 20.5 32.692 20.5 36V52C20.5 55.308 23.192 58 26.5 58H54.5C57.808 58 60.5 55.308 60.5 52V36C60.5 32.692 57.808 30 54.5 30Z" fill="white"/>
</mask>
<g mask="url(#mask0_19447_17017)">
<rect x="16.5" y="16" width="48" height="48" fill="#009530"/>
</g>
</svg>
