<svg width="24" height="24" viewBox="0 0 24 24" fill="none" xmlns="http://www.w3.org/2000/svg">
<g clip-path="url(#clip0_19447_9568)">
<circle cx="12" cy="12" r="11.25" fill="#E9F7ED"/>
<path d="M15.4943 9.82928C15.5715 9.75724 15.6338 9.67069 15.6776 9.57456C15.7214 9.47844 15.7458 9.37462 15.7495 9.26905C15.7532 9.16347 15.7361 9.0582 15.6991 8.95925C15.6622 8.86029 15.6061 8.76959 15.5341 8.69232C15.4621 8.61505 15.3757 8.55273 15.2796 8.50891C15.1836 8.4651 15.0798 8.44064 14.9743 8.43694C14.8688 8.43324 14.7637 8.45038 14.6648 8.48737C14.5659 8.52435 14.4753 8.58047 14.3981 8.65251L12.0464 10.8468L9.85388 8.49244C9.70718 8.34206 9.50749 8.25512 9.29755 8.25022C9.08761 8.24532 8.88409 8.32285 8.73054 8.46622C8.57699 8.60959 8.48561 8.80742 8.47595 9.01736C8.46629 9.22731 8.53912 9.4327 8.67886 9.58958L10.8714 11.9431L8.51892 14.1374C8.43898 14.2087 8.37409 14.2953 8.32806 14.3921C8.28203 14.4888 8.25578 14.5938 8.25085 14.7009C8.24593 14.8079 8.26242 14.9149 8.29938 15.0155C8.33633 15.116 8.393 15.2082 8.46605 15.2866C8.53909 15.3649 8.62705 15.4279 8.72475 15.4718C8.82245 15.5156 8.92792 15.5395 9.03497 15.542C9.14203 15.5445 9.2485 15.5256 9.34813 15.4863C9.44777 15.447 9.53856 15.3883 9.61518 15.3134L11.9668 13.1199L14.1594 15.4735C14.2302 15.5549 14.3166 15.6213 14.4136 15.6686C14.5106 15.716 14.6161 15.7433 14.7238 15.7489C14.8315 15.7545 14.9393 15.7384 15.0407 15.7015C15.1421 15.6646 15.235 15.6076 15.3139 15.534C15.3928 15.4604 15.4561 15.3716 15.5 15.273C15.5439 15.1743 15.5675 15.0679 15.5694 14.9599C15.5713 14.8519 15.5515 14.7447 15.5111 14.6446C15.4708 14.5445 15.4106 14.4535 15.3344 14.3771L13.1427 12.0236L15.4943 9.82928Z" fill="#009530"/>
</g>
<defs>
<clipPath id="clip0_19447_9568">
<rect width="24" height="24" fill="white"/>
</clipPath>
</defs>
</svg>
