<svg width="120" height="120" viewBox="0 0 120 120" fill="none" xmlns="http://www.w3.org/2000/svg">
<circle cx="60" cy="60" r="60" fill="#E9F7ED"/>
<path d="M48 63C46.3431 63 45 64.3431 45 66C45 67.6569 46.3431 69 48 69V63ZM54 69C55.6569 69 57 67.6569 57 66C57 64.3431 55.6569 63 54 63V69ZM48 51C46.3431 51 45 52.3431 45 54C45 55.6569 46.3431 57 48 57V51ZM66 57C67.6569 57 69 55.6569 69 54C69 52.3431 67.6569 51 66 51V57ZM48 39C46.3431 39 45 40.3431 45 42C45 43.6569 46.3431 45 48 45V39ZM66 45C67.6569 45 69 43.6569 69 42C69 40.3431 67.6569 39 66 39V45ZM75 58.5C75 60.1569 76.3431 61.5 78 61.5C79.6569 61.5 81 60.1569 81 58.5H75ZM54 87C55.6569 87 57 85.6569 57 84C57 82.3431 55.6569 81 54 81V87ZM39.2342 83.3245L40.6171 80.6622L40.6171 80.6622L39.2342 83.3245ZM36.6755 80.7658L39.3378 79.3829L36.6755 80.7658ZM74.7658 30.6755L73.3829 33.3378L74.7658 30.6755ZM77.3245 33.2342L74.6622 34.6171V34.6171L77.3245 33.2342ZM39.2342 30.6755L37.8512 28.0133L39.2342 30.6755ZM36.6755 33.2342L34.0133 31.8512L36.6755 33.2342ZM86.1213 74.1213C87.2929 72.9497 87.2929 71.0503 86.1213 69.8787C84.9497 68.7071 83.0503 68.7071 81.8787 69.8787L86.1213 74.1213ZM68.1213 75.8787C66.9497 74.7071 65.0503 74.7071 63.8787 75.8787C62.7071 77.0503 62.7071 78.9497 63.8787 80.1213L68.1213 75.8787ZM48 69H54V63H48V69ZM48 57H66V51H48V57ZM48 45H66V39H48V45ZM45.66 33H68.34V27H45.66V33ZM75 39.66V58.5H81V39.66H75ZM54 81H45.66V87H54V81ZM39 74.34V39.66H33V74.34H39ZM45.66 81C43.9012 81 42.7655 80.9976 41.9017 80.9258C41.0737 80.8571 40.7677 80.7405 40.6171 80.6622L37.8512 85.9867C39.001 86.584 40.1994 86.8051 41.4051 86.9053C42.5748 87.0024 44.0019 87 45.66 87V81ZM33 74.34C33 75.9981 32.9976 77.4252 33.0947 78.5949C33.1949 79.8006 33.416 80.999 34.0133 82.1488L39.3378 79.3829C39.2595 79.2323 39.1429 78.9263 39.0741 78.0983C39.0024 77.2345 39 76.0988 39 74.34H33ZM40.6171 80.6622C40.0691 80.3776 39.6224 79.9309 39.3378 79.3829L34.0133 82.1488C34.8672 83.7926 36.2074 85.1328 37.8512 85.9867L40.6171 80.6622ZM68.34 33C70.0988 33 71.2345 33.0024 72.0983 33.0741C72.9263 33.1429 73.2323 33.2595 73.3829 33.3378L76.1488 28.0133C74.999 27.416 73.8006 27.1949 72.5949 27.0947C71.4252 26.9976 69.9981 27 68.34 27V33ZM81 39.66C81 38.0019 81.0024 36.5748 80.9053 35.4051C80.8051 34.1994 80.584 33.001 79.9867 31.8512L74.6622 34.6171C74.7405 34.7677 74.8571 35.0737 74.9259 35.9017C74.9976 36.7655 75 37.9012 75 39.66H81ZM73.3829 33.3378C73.9309 33.6224 74.3776 34.0691 74.6622 34.6171L79.9867 31.8512C79.1328 30.2074 77.7926 28.8672 76.1488 28.0133L73.3829 33.3378ZM45.66 27C44.0019 27 42.5748 26.9976 41.4051 27.0947C40.1994 27.1949 39.001 27.416 37.8512 28.0133L40.6171 33.3378C40.7677 33.2595 41.0737 33.1429 41.9017 33.0741C42.7655 33.0024 43.9012 33 45.66 33V27ZM39 39.66C39 37.9012 39.0024 36.7655 39.0741 35.9017C39.1429 35.0737 39.2595 34.7677 39.3378 34.6171L34.0133 31.8512C33.416 33.001 33.1949 34.1994 33.0947 35.4051C32.9976 36.5749 33 38.0019 33 39.66H39ZM37.8512 28.0133C36.2074 28.8672 34.8672 30.2074 34.0133 31.8512L39.3378 34.6171C39.6224 34.0691 40.0691 33.6224 40.6171 33.3378L37.8512 28.0133ZM75.182 85.0607L86.1213 74.1213L81.8787 69.8787L70.9393 80.818L75.182 85.0607ZM73.0607 80.818L68.1213 75.8787L63.8787 80.1213L68.818 85.0607L73.0607 80.818ZM70.9393 80.818C71.5251 80.2322 72.4749 80.2322 73.0607 80.818L68.818 85.0607C70.5754 86.818 73.4246 86.818 75.182 85.0607L70.9393 80.818Z" fill="#009530"/>
</svg>
