<svg width="10" height="11" viewBox="0 0 10 11" fill="none" xmlns="http://www.w3.org/2000/svg">
<path d="M8.74869 4.84058C8.89917 4.88313 8.98882 4.99051 8.97921 5.11006C8.96641 5.26202 8.79992 5.38156 8.59181 5.38561L0.89188 5.56797C0.792629 5.57 0.69658 5.54569 0.622942 5.49909C0.536498 5.44438 0.491675 5.36333 0.50128 5.27823C0.514087 5.12626 0.680572 5.00672 0.888678 5.00267L8.58541 4.82031C8.60462 4.82031 8.62383 4.82031 8.64304 4.82233C8.67826 4.82436 8.71348 4.83044 8.74869 4.84058Z" fill="#009530"/>
<path d="M3.93977 9.83234L9.03357 8.47479L9.04958 8.46871L9.07839 8.46263C9.27369 8.42616 9.4818 8.49708 9.57465 8.63283C9.62908 8.70983 9.63228 8.7929 9.59066 8.86382C9.55224 8.92258 9.4818 8.96513 9.39536 8.99147L4.29195 10.351C4.09345 10.4037 3.85652 10.3328 3.75727 10.1889C3.70285 10.112 3.69964 10.0289 3.74127 9.95796C3.77648 9.90123 3.84372 9.85665 3.92696 9.83234C3.93336 9.83436 3.93657 9.83436 3.93977 9.83234ZM4.15748 10.1606C4.15748 10.1586 4.15748 10.1586 4.15748 10.1606V10.1606Z" fill="#009530"/>
<path d="M4.06109 0.536068C3.97784 0.511754 3.91061 0.467179 3.87539 0.410446C3.83057 0.339529 3.83697 0.256459 3.8914 0.179464C3.99065 0.035605 4.22437 -0.0353151 4.42607 0.0173656L9.52948 1.37694C9.61592 1.40328 9.68956 1.44583 9.72478 1.50459C9.7696 1.57551 9.7632 1.65858 9.70877 1.73557C9.61592 1.87133 9.40782 1.94224 9.21252 1.90577L9.1837 1.89969L9.1677 1.89361L4.07389 0.536068C4.06749 0.538094 4.06429 0.536068 4.06109 0.536068ZM4.20836 0.345613C4.20516 0.345613 4.20516 0.345613 4.20836 0.345613V0.345613Z" fill="#009530"/>
</svg>
