<svg width="81" height="80" viewBox="0 0 81 80" fill="none" xmlns="http://www.w3.org/2000/svg">
<circle cx="40.5" cy="40" r="40" fill="#E9F7ED"/>
<path fill-rule="evenodd" clip-rule="evenodd" d="M44.4994 42H42.4994V40C42.4994 38.896 41.6054 38 40.4994 38C39.3934 38 38.4994 38.896 38.4994 40V42H36.4994C35.3934 42 34.4994 42.896 34.4994 44C34.4994 45.104 35.3934 46 36.4994 46H38.4994V48C38.4994 49.104 39.3934 50 40.4994 50C41.6054 50 42.4994 49.104 42.4994 48V46H44.4994C45.6054 46 46.4994 45.104 46.4994 44C46.4994 42.896 45.6054 42 44.4994 42ZM51.388 56H29.61C28.998 56 28.5 55.552 28.5 55V25C28.5 24.448 28.998 24 29.61 24H40.5V30.3C40.5 33.444 42.934 36 45.928 36H52.5V55C52.5 55.552 52.002 56 51.388 56ZM44.5 25.956L49.984 32H45.928C45.14 32 44.5 31.238 44.5 30.3V25.956ZM55.98 32.656L45.092 20.656C44.712 20.238 44.176 20 43.61 20H29.61C26.792 20 24.5 22.244 24.5 25V55C24.5 57.756 26.792 60 29.61 60H51.388C54.206 60 56.5 57.756 56.5 55V34C56.5 33.502 56.314 33.024 55.98 32.656Z" fill="#009530"/>
<mask id="mask0_18600_83067" style="mask-type:luminance" maskUnits="userSpaceOnUse" x="24" y="20" width="33" height="40">
<path fill-rule="evenodd" clip-rule="evenodd" d="M44.4994 42H42.4994V40C42.4994 38.896 41.6054 38 40.4994 38C39.3934 38 38.4994 38.896 38.4994 40V42H36.4994C35.3934 42 34.4994 42.896 34.4994 44C34.4994 45.104 35.3934 46 36.4994 46H38.4994V48C38.4994 49.104 39.3934 50 40.4994 50C41.6054 50 42.4994 49.104 42.4994 48V46H44.4994C45.6054 46 46.4994 45.104 46.4994 44C46.4994 42.896 45.6054 42 44.4994 42ZM51.388 56H29.61C28.998 56 28.5 55.552 28.5 55V25C28.5 24.448 28.998 24 29.61 24H40.5V30.3C40.5 33.444 42.934 36 45.928 36H52.5V55C52.5 55.552 52.002 56 51.388 56ZM44.5 25.956L49.984 32H45.928C45.14 32 44.5 31.238 44.5 30.3V25.956ZM55.98 32.656L45.092 20.656C44.712 20.238 44.176 20 43.61 20H29.61C26.792 20 24.5 22.244 24.5 25V55C24.5 57.756 26.792 60 29.61 60H51.388C54.206 60 56.5 57.756 56.5 55V34C56.5 33.502 56.314 33.024 55.98 32.656Z" fill="white"/>
</mask>
<g mask="url(#mask0_18600_83067)">
<rect x="16.5" y="16" width="48" height="48" fill="#009530"/>
</g>
</svg>
