<svg width="81" height="80" viewBox="0 0 81 80" fill="none" xmlns="http://www.w3.org/2000/svg">
<circle cx="40.5" cy="40" r="40" fill="#E9F7ED"/>
<path fill-rule="evenodd" clip-rule="evenodd" d="M58.4941 37.9482H58.5001C59.6021 37.9482 60.4981 38.8402 60.5001 39.9422C60.5161 45.2842 58.4501 50.3142 54.6821 54.1022C50.9161 57.8902 45.9001 59.9842 40.5581 60.0002H40.5001C35.1781 60.0002 30.1721 57.9362 26.3981 54.1822C22.6101 50.4162 20.5161 45.4002 20.5001 40.0582C20.4841 34.7142 22.5501 29.6862 26.3181 25.8982C30.0841 22.1102 35.1001 20.0162 40.4421 20.0002C42.0321 20.0242 43.6521 20.1842 45.2041 20.5562C46.2761 20.8162 46.9381 21.8962 46.6781 22.9702C46.4201 24.0422 45.3341 24.7022 44.2661 24.4462C43.0241 24.1462 41.7061 24.0202 40.4541 24.0002C36.1801 24.0122 32.1661 25.6882 29.1541 28.7182C26.1401 31.7482 24.4881 35.7722 24.5001 40.0462C24.5121 44.3202 26.1881 48.3322 29.2181 51.3462C32.2381 54.3482 36.2421 56.0002 40.5001 56.0002H40.5461C44.8201 55.9882 48.8341 54.3122 51.8461 51.2822C54.8601 48.2502 56.5121 44.2282 56.5001 39.9542C56.4981 38.8502 57.3901 37.9502 58.4941 37.9482ZM33.0861 38.586C33.8681 37.804 35.1321 37.804 35.9141 38.586L40.4021 43.074L52.9961 28.682C53.7241 27.856 54.9861 27.768 55.8181 28.496C56.6481 29.222 56.7321 30.486 56.0041 31.318L42.0041 47.318C41.6401 47.734 41.1201 47.98 40.5661 48H40.5001C39.9701 48 39.4621 47.79 39.0861 47.414L33.0861 41.414C32.3041 40.632 32.3041 39.368 33.0861 38.586Z" fill="#009530"/>
<mask id="mask0_19447_14627" style="mask-type:luminance" maskUnits="userSpaceOnUse" x="20" y="20" width="41" height="41">
<path fill-rule="evenodd" clip-rule="evenodd" d="M58.4941 37.9482H58.5001C59.6021 37.9482 60.4981 38.8402 60.5001 39.9422C60.5161 45.2842 58.4501 50.3142 54.6821 54.1022C50.9161 57.8902 45.9001 59.9842 40.5581 60.0002H40.5001C35.1781 60.0002 30.1721 57.9362 26.3981 54.1822C22.6101 50.4162 20.5161 45.4002 20.5001 40.0582C20.4841 34.7142 22.5501 29.6862 26.3181 25.8982C30.0841 22.1102 35.1001 20.0162 40.4421 20.0002C42.0321 20.0242 43.6521 20.1842 45.2041 20.5562C46.2761 20.8162 46.9381 21.8962 46.6781 22.9702C46.4201 24.0422 45.3341 24.7022 44.2661 24.4462C43.0241 24.1462 41.7061 24.0202 40.4541 24.0002C36.1801 24.0122 32.1661 25.6882 29.1541 28.7182C26.1401 31.7482 24.4881 35.7722 24.5001 40.0462C24.5121 44.3202 26.1881 48.3322 29.2181 51.3462C32.2381 54.3482 36.2421 56.0002 40.5001 56.0002H40.5461C44.8201 55.9882 48.8341 54.3122 51.8461 51.2822C54.8601 48.2502 56.5121 44.2282 56.5001 39.9542C56.4981 38.8502 57.3901 37.9502 58.4941 37.9482ZM33.0861 38.586C33.8681 37.804 35.1321 37.804 35.9141 38.586L40.4021 43.074L52.9961 28.682C53.7241 27.856 54.9861 27.768 55.8181 28.496C56.6481 29.222 56.7321 30.486 56.0041 31.318L42.0041 47.318C41.6401 47.734 41.1201 47.98 40.5661 48H40.5001C39.9701 48 39.4621 47.79 39.0861 47.414L33.0861 41.414C32.3041 40.632 32.3041 39.368 33.0861 38.586Z" fill="white"/>
</mask>
<g mask="url(#mask0_19447_14627)">
<rect x="16.5" y="16" width="48" height="48" fill="#009530"/>
</g>
</svg>
