<svg width="81" height="80" viewBox="0 0 81 80" fill="none" xmlns="http://www.w3.org/2000/svg">
<circle cx="40.5" cy="40" r="40" fill="#FCE1BA"/>
<path fill-rule="evenodd" clip-rule="evenodd" d="M38.501 34C38.501 32.896 39.397 32 40.501 32C41.605 32 42.501 32.896 42.501 34V42C42.501 43.104 41.605 44 40.501 44C39.397 44 38.501 43.104 38.501 42V34ZM38.501 48C38.501 46.896 39.397 46 40.501 46C41.605 46 42.501 46.896 42.501 48C42.501 49.104 41.605 50 40.501 50C39.397 50 38.501 49.104 38.501 48ZM58.2304 52.706C57.7724 53.516 56.8804 54 55.8444 54H25.1564C24.1204 54 23.2284 53.516 22.7724 52.706C22.5564 52.326 22.2724 51.552 22.8064 50.672L38.1484 25.236C39.0824 23.688 41.9184 23.688 42.8524 25.236L58.1964 50.672C58.7284 51.552 58.4464 52.326 58.2304 52.706ZM61.6224 48.606L46.2784 23.168C45.0804 21.184 42.9204 20 40.5004 20C38.0804 20 35.9204 21.184 34.7244 23.168L19.3804 48.606C18.2424 50.492 18.2084 52.76 19.2884 54.672C20.4464 56.726 22.6964 58 25.1564 58H55.8444C58.3064 58 60.5544 56.726 61.7144 54.672C62.7944 52.76 62.7604 50.492 61.6224 48.606Z" fill="#F39000"/>
<mask id="mask0_19447_17944" style="mask-type:luminance" maskUnits="userSpaceOnUse" x="18" y="20" width="45" height="38">
<path fill-rule="evenodd" clip-rule="evenodd" d="M38.501 34C38.501 32.896 39.397 32 40.501 32C41.605 32 42.501 32.896 42.501 34V42C42.501 43.104 41.605 44 40.501 44C39.397 44 38.501 43.104 38.501 42V34ZM38.501 48C38.501 46.896 39.397 46 40.501 46C41.605 46 42.501 46.896 42.501 48C42.501 49.104 41.605 50 40.501 50C39.397 50 38.501 49.104 38.501 48ZM58.2304 52.706C57.7724 53.516 56.8804 54 55.8444 54H25.1564C24.1204 54 23.2284 53.516 22.7724 52.706C22.5564 52.326 22.2724 51.552 22.8064 50.672L38.1484 25.236C39.0824 23.688 41.9184 23.688 42.8524 25.236L58.1964 50.672C58.7284 51.552 58.4464 52.326 58.2304 52.706ZM61.6224 48.606L46.2784 23.168C45.0804 21.184 42.9204 20 40.5004 20C38.0804 20 35.9204 21.184 34.7244 23.168L19.3804 48.606C18.2424 50.492 18.2084 52.76 19.2884 54.672C20.4464 56.726 22.6964 58 25.1564 58H55.8444C58.3064 58 60.5544 56.726 61.7144 54.672C62.7944 52.76 62.7604 50.492 61.6224 48.606Z" fill="white"/>
</mask>
<g mask="url(#mask0_19447_17944)">
<rect x="16.5" y="16" width="48" height="48" fill="#F39000"/>
</g>
</svg>
