<svg width="40" height="40" viewBox="0 0 40 40" fill="none" xmlns="http://www.w3.org/2000/svg">
<path d="M28.015 23.4748C27.5764 23.2528 25.4403 22.2105 25.0411 22.0617C24.6419 21.9195 24.352 21.8452 24.0611 22.2837C23.7767 22.7114 22.9389 23.6903 22.683 23.9758C22.427 24.2613 22.1755 24.2831 21.7434 24.0895C21.3048 23.8675 19.9037 23.4114 18.2402 21.9195C16.9408 20.7634 16.0756 19.3394 15.8186 18.9008C15.5627 18.4677 15.7902 18.2227 16.0067 18.0061C16.2058 17.807 16.4453 17.5052 16.6673 17.2427C16.8784 16.9802 16.9462 16.8041 17.1005 16.5197C17.2427 16.2123 17.1694 15.9728 17.0611 15.7562C16.9528 15.5397 16.0811 13.3927 15.7169 12.5373C15.3691 11.6886 15.0048 11.7969 14.7369 11.7969C14.4864 11.7739 14.1955 11.7739 13.9056 11.7739C13.6158 11.7739 13.1422 11.8822 12.743 12.2978C12.3438 12.7364 11.2161 13.7842 11.2161 15.9039C11.2161 18.0291 12.7769 20.0853 12.9934 20.3927C13.2155 20.677 16.0636 25.052 20.4331 26.9322C21.4755 27.3708 22.2848 27.6333 22.917 27.8498C23.9594 28.1802 24.9109 28.1342 25.6623 28.0259C26.4936 27.8892 28.237 26.9716 28.6023 25.9467C28.9731 24.9153 28.9731 24.0611 28.8648 23.8675C28.7566 23.6684 28.4722 23.5602 28.0336 23.3666L28.015 23.4748ZM20.0908 34.2188H20.0678C17.4811 34.2188 14.9239 33.5177 12.6905 32.2073L12.1666 31.8945L6.69781 33.3186L8.16781 27.9975L7.81453 27.4506C6.37019 25.1541 5.60395 22.4964 5.60406 19.7834C5.60406 11.8428 12.1042 5.36562 20.1017 5.36562C23.9758 5.36562 27.6103 6.875 30.3447 9.60938C31.6936 10.9422 32.7635 12.5303 33.4922 14.2811C34.2208 16.0318 34.5934 17.9101 34.5884 19.8064C34.5775 27.7416 28.0828 34.2188 20.0962 34.2188H20.0908ZM32.4239 7.53016C29.0967 4.31672 24.7217 2.5 20.0678 2.5C10.4691 2.5 2.65313 10.282 2.64766 19.8458C2.64766 22.8995 3.445 25.8789 4.97187 28.5159L2.5 37.5L11.74 35.0905C14.2997 36.4705 17.1609 37.1964 20.0689 37.2036H20.0744C29.6786 37.2036 37.4945 29.4216 37.5 19.8512C37.5 15.2203 35.6942 10.8617 32.402 7.58594L32.4239 7.53016Z" fill="#009530"/>
</svg>
