<svg width="80" height="80" viewBox="0 0 80 80" fill="none" xmlns="http://www.w3.org/2000/svg">
<path d="M80 40C80 62.0914 62.0914 80 40 80C17.9086 80 0 62.0914 0 40C0 17.9086 17.9086 0 40 0C62.0914 0 80 17.9086 80 40Z" fill="#E9F7ED"/>
<path d="M77.9304 40.2988C77.9304 61.0825 60.9328 77.931 39.9652 77.931C18.9976 77.931 2 61.0825 2 40.2988C2 19.5151 18.9976 2.66663 39.9652 2.66663C60.9328 2.66663 77.9304 19.5151 77.9304 40.2988Z" fill="#E9F7ED"/>
<path fill-rule="evenodd" clip-rule="evenodd" d="M38.0009 32C38.0009 30.896 38.8969 30 40.0009 30C41.1049 30 42.0009 30.896 42.0009 32V42C42.0009 43.104 41.1049 44 40.0009 44C38.8969 44 38.0009 43.104 38.0009 42V32ZM38.0009 48C38.0009 46.896 38.8969 46 40.0009 46C41.1049 46 42.0009 46.896 42.0009 48C42.0009 49.104 41.1049 50 40.0009 50C38.8969 50 38.0009 49.104 38.0009 48ZM39.9997 56C31.1777 56 23.9997 48.822 23.9997 40C23.9997 31.178 31.1777 24 39.9997 24C48.8217 24 55.9997 31.178 55.9997 40C55.9997 48.822 48.8217 56 39.9997 56ZM40 20C28.954 20 20 28.954 20 40C20 51.046 28.954 60 40 60C51.046 60 60 51.046 60 40C60 28.954 51.046 20 40 20Z" fill="#009530"/>
<mask id="mask0_17314_65490" style="mask-type:alpha" maskUnits="userSpaceOnUse" x="20" y="20" width="40" height="40">
<path fill-rule="evenodd" clip-rule="evenodd" d="M38.0009 32C38.0009 30.896 38.8969 30 40.0009 30C41.1049 30 42.0009 30.896 42.0009 32V42C42.0009 43.104 41.1049 44 40.0009 44C38.8969 44 38.0009 43.104 38.0009 42V32ZM38.0009 48C38.0009 46.896 38.8969 46 40.0009 46C41.1049 46 42.0009 46.896 42.0009 48C42.0009 49.104 41.1049 50 40.0009 50C38.8969 50 38.0009 49.104 38.0009 48ZM39.9997 56C31.1777 56 23.9997 48.822 23.9997 40C23.9997 31.178 31.1777 24 39.9997 24C48.8217 24 55.9997 31.178 55.9997 40C55.9997 48.822 48.8217 56 39.9997 56ZM40 20C28.954 20 20 28.954 20 40C20 51.046 28.954 60 40 60C51.046 60 60 51.046 60 40C60 28.954 51.046 20 40 20Z" fill="white"/>
</mask>
<g mask="url(#mask0_17314_65490)">
<rect x="16" y="16" width="48" height="48" fill="#009530"/>
</g>
</svg>
